<svg width="38" height="38" viewBox="0 0 38 38" fill="none" xmlns="http://www.w3.org/2000/svg">
<path d="M19.0833 36.1667L15.6667 25.9167H2L5.41667 36.1667H19.0833ZM19.0833 36.1667H25.9167M19.0833 20.7917V19.9375C19.0833 16.7156 19.0833 15.1063 18.0822 14.1053C17.0812 13.1042 15.4719 13.1042 12.25 13.1042C9.02808 13.1042 7.41883 13.1042 6.41775 14.1053C5.41667 15.1063 5.41667 16.7156 5.41667 19.9375V20.7917M22.5 28.4792H32.75C33.6562 28.4792 34.5252 28.8391 35.1659 29.4799C35.8067 30.1206 36.1667 30.9897 36.1667 31.8958V32.75C36.1667 33.6562 35.8067 34.5252 35.1659 35.1659C34.5252 35.8067 33.6562 36.1667 32.75 36.1667H31.0417M31.0417 20.7917C31.0417 21.6978 30.6817 22.5669 30.0409 23.2076C29.4002 23.8484 28.5312 24.2083 27.625 24.2083C26.7188 24.2083 25.8498 23.8484 25.2091 23.2076C24.5683 22.5669 24.2083 21.6978 24.2083 20.7917C24.2083 19.8855 24.5683 19.0165 25.2091 18.3757C25.8498 17.735 26.7188 17.375 27.625 17.375C28.5312 17.375 29.4002 17.735 30.0409 18.3757C30.6817 19.0165 31.0417 19.8855 31.0417 20.7917ZM15.6667 5.41667C15.6667 6.32282 15.3067 7.19187 14.6659 7.83261C14.0252 8.47336 13.1562 8.83333 12.25 8.83333C11.3438 8.83333 10.4748 8.47336 9.83405 7.83261C9.1933 7.19187 8.83333 6.32282 8.83333 5.41667C8.83333 4.51051 9.1933 3.64147 9.83405 3.00072C10.4748 2.35997 11.3438 2 12.25 2C13.1562 2 14.0252 2.35997 14.6659 3.00072C15.3067 3.64147 15.6667 4.51051 15.6667 5.41667Z" stroke="#565656" stroke-width="3" stroke-linecap="round" stroke-linejoin="round"/>
</svg>
