<svg width="38" height="22" viewBox="0 0 38 22" fill="none" xmlns="http://www.w3.org/2000/svg">
<path d="M11.25 20.5V18.9583C11.25 16.914 12.0621 14.9533 13.5077 13.5077C14.9533 12.0621 16.914 11.25 18.9583 11.25M18.9583 11.25C21.0027 11.25 22.9634 12.0621 24.4089 13.5077C25.8545 14.9533 26.6667 16.914 26.6667 18.9583V20.5M18.9583 11.25C20.185 11.25 21.3613 10.7627 22.2287 9.89537C23.0961 9.02801 23.5833 7.85163 23.5833 6.625C23.5833 5.39837 23.0961 4.22199 22.2287 3.35463C21.3613 2.48728 20.185 2 18.9583 2C17.7317 2 16.5553 2.48728 15.688 3.35463C14.8206 4.22199 14.3333 5.39837 14.3333 6.625C14.3333 7.85163 14.8206 9.02801 15.688 9.89537C16.5553 10.7627 17.7317 11.25 18.9583 11.25ZM2 20.5V18.9583C2 17.7317 2.48728 16.5553 3.35463 15.688C4.22199 14.8206 5.39837 14.3333 6.625 14.3333M6.625 14.3333C7.44275 14.3333 8.22701 14.0085 8.80525 13.4302C9.38348 12.852 9.70833 12.0678 9.70833 11.25C9.70833 10.4322 9.38348 9.64799 8.80525 9.06975C8.22701 8.49152 7.44275 8.16667 6.625 8.16667C5.80725 8.16667 5.02299 8.49152 4.44475 9.06975C3.86652 9.64799 3.54167 10.4322 3.54167 11.25C3.54167 12.0678 3.86652 12.852 4.44475 13.4302C5.02299 14.0085 5.80725 14.3333 6.625 14.3333ZM35.9167 20.5V18.9583C35.9167 17.7317 35.4294 16.5553 34.562 15.688C33.6947 14.8206 32.5183 14.3333 31.2917 14.3333M31.2917 14.3333C32.1094 14.3333 32.8937 14.0085 33.4719 13.4302C34.0502 12.852 34.375 12.0678 34.375 11.25C34.375 10.4322 34.0502 9.64799 33.4719 9.06975C32.8937 8.49152 32.1094 8.16667 31.2917 8.16667C30.4739 8.16667 29.6897 8.49152 29.1114 9.06975C28.5332 9.64799 28.2083 10.4322 28.2083 11.25C28.2083 12.0678 28.5332 12.852 29.1114 13.4302C29.6897 14.0085 30.4739 14.3333 31.2917 14.3333Z" stroke="#565656" stroke-width="3" stroke-linecap="round" stroke-linejoin="round"/>
</svg>
