<svg width="29" height="29" viewBox="0 0 29 29" fill="none" xmlns="http://www.w3.org/2000/svg">
<path d="M21 6.99067e-09C22.1478 -6.39326e-05 23.2523 0.438488 24.0874 1.22593C24.9225 2.01336 25.4252 3.09016 25.4925 4.236L25.5 4.5V19.5H26.625C27.5955 19.5 28.395 20.238 28.491 21.183L28.5 21.375V24C28.5001 25.1478 28.0615 26.2523 27.2741 27.0874C26.4866 27.9225 25.4098 28.4252 24.264 28.4925L24 28.5H9C7.85218 28.5001 6.74773 28.0615 5.91261 27.2741C5.07749 26.4866 4.57484 25.4098 4.5075 24.264L4.5 24V9H1.875C1.41081 9.00021 0.963048 8.82823 0.618351 8.51734C0.273655 8.20645 0.0565328 7.77875 0.00900007 7.317L6.99067e-09 7.125V4.5C-6.39326e-05 3.35218 0.438488 2.24773 1.22593 1.41261C2.01336 0.57749 3.09016 0.0748387 4.236 0.00750018L4.5 6.99067e-09H21ZM21 3H7.5V24C7.5 24.3978 7.65804 24.7794 7.93934 25.0607C8.22064 25.342 8.60218 25.5 9 25.5C9.39782 25.5 9.77936 25.342 10.0607 25.0607C10.342 24.7794 10.5 24.3978 10.5 24V21.375C10.5 20.34 11.34 19.5 12.375 19.5H22.5V4.5C22.5 4.10218 22.342 3.72064 22.0607 3.43934C21.7794 3.15804 21.3978 3 21 3ZM25.5 22.5H13.5V24C13.5 24.525 13.41 25.0305 13.245 25.5H24C24.3978 25.5 24.7794 25.342 25.0607 25.0607C25.342 24.7794 25.5 24.3978 25.5 24V22.5ZM15 13.5C15.3978 13.5 15.7794 13.658 16.0607 13.9393C16.342 14.2206 16.5 14.6022 16.5 15C16.5 15.3978 16.342 15.7794 16.0607 16.0607C15.7794 16.342 15.3978 16.5 15 16.5H12C11.6022 16.5 11.2206 16.342 10.9393 16.0607C10.658 15.7794 10.5 15.3978 10.5 15C10.5 14.6022 10.658 14.2206 10.9393 13.9393C11.2206 13.658 11.6022 13.5 12 13.5H15ZM18 7.5C18.3978 7.5 18.7794 7.65804 19.0607 7.93934C19.342 8.22064 19.5 8.60218 19.5 9C19.5 9.39782 19.342 9.77936 19.0607 10.0607C18.7794 10.342 18.3978 10.5 18 10.5H12C11.6022 10.5 11.2206 10.342 10.9393 10.0607C10.658 9.77936 10.5 9.39782 10.5 9C10.5 8.60218 10.658 8.22064 10.9393 7.93934C11.2206 7.65804 11.6022 7.5 12 7.5H18ZM4.5 3C4.1326 3.00005 3.77799 3.13493 3.50344 3.37907C3.22889 3.62321 3.05349 3.95962 3.0105 4.3245L3 4.5V6H4.5V3Z" fill="#565656"/>
</svg>
