<svg width="46" height="52" viewBox="0 0 46 52" fill="none" xmlns="http://www.w3.org/2000/svg">
<path d="M28.3172 33.6489L29.8641 23.8319L19.4224 19.5125L17.8755 34.4342L28.3172 33.6489Z" fill="#A0616A"/>
<path d="M38.8114 48.157C37.915 48.6008 37.0014 49.0014 36.0742 49.3568C34.2197 50.0693 32.3055 50.6069 30.3418 50.9659C28.4224 51.3177 26.4519 51.4964 24.4813 51.4964C21.8191 51.4964 19.1723 51.1721 16.6126 50.5305C15.6103 50.281 14.5994 49.9758 13.6056 49.6203C13.5014 49.5822 13.3956 49.5441 13.2914 49.5058C12.0585 49.0517 10.8461 48.5193 9.67981 47.9177C9.52269 47.838 9.3656 47.7563 9.20851 47.6696C9.03434 47.5796 8.86187 47.4842 8.68769 47.3854C8.46569 47.2623 8.24541 47.1339 8.02512 47.0039C7.28746 46.5704 6.56173 46.1022 5.86844 45.6151L5.82233 45.5839C5.78135 45.5545 5.74037 45.5267 5.7011 45.4972C5.72669 45.3603 5.75062 45.2353 5.7728 45.1244C5.85818 44.6892 5.91455 44.45 5.91455 44.45L10.5899 34.6431L11.8929 31.9106L12.5281 31.6452L17.3265 29.6426H29.0542L32.7546 31.1962C32.7546 31.1962 32.7734 31.2673 32.811 31.4043C33.1798 32.748 35.3314 40.3771 38.6698 47.8413C38.7158 47.9453 38.7637 48.0511 38.8114 48.157Z" fill="#EC612A"/>
<path d="M25.6785 26.9877C31.5592 26.9877 36.3265 22.1471 36.3265 16.1759C36.3265 10.2047 31.5592 5.36407 25.6785 5.36407C19.7978 5.36407 15.0305 10.2047 15.0305 16.1759C15.0305 22.1471 19.7978 26.9877 25.6785 26.9877Z" fill="#A0616A"/>
<path d="M12.5467 31.5522L12.5284 31.6452L9.28205 47.3177L9.25395 47.4542L9.20874 47.6701C9.03402 47.5795 8.86175 47.484 8.68826 47.386C8.46589 47.2619 8.24596 47.1341 8.02481 47.0039C7.28807 46.5709 6.56231 46.102 5.86833 45.6156L5.8219 45.5834C5.78158 45.5549 5.74004 45.5263 5.70094 45.4978C5.17068 45.1219 4.65386 44.7299 4.14925 44.3254C4.14558 44.3229 4.14314 44.3205 4.13948 44.3167C3.23901 43.5798 2.37153 42.7871 1.54192 41.9447C1.00677 41.4013 0.492391 40.8418 0 40.2674L0.0745367 39.9498L0.0818672 39.9176L0.174718 39.5131C1.00066 35.9712 3.79493 33.253 7.31494 32.5682L11.992 31.6589L12.5467 31.5522Z" fill="#EC612A"/>
<path d="M45.7085 43.5743C44.3304 44.7655 42.8534 45.844 41.2943 46.7907C41.1423 46.8844 40.9869 46.9761 40.8316 47.0681C40.169 47.4565 39.4945 47.8189 38.8114 48.157C37.915 48.6008 37.0014 49.0014 36.0742 49.3568L36.0025 49.0134L32.3362 31.3124L32.811 31.4043L37.5684 32.3302C41.0877 33.0151 43.8831 35.7337 44.7078 39.276L45.618 43.1894L45.7085 43.5743Z" fill="#EC612A"/>
<path d="M37.9406 19.066C37.6639 20.1133 36.2723 24.7931 32.7085 25.7778C32.0084 25.9721 30.3384 26.1957 30.7806 25.7778C30.8814 25.6825 30.9787 25.5889 31.076 25.4969C34.9437 21.8038 36.5216 19.5464 35.801 14.5355C35.3433 11.3451 30.1317 8.44777 27.1998 8.15993C25.9635 8.03869 24.3856 8.46335 23.344 9.55752C21.6245 11.3606 21.9079 16.8953 20.9551 20.1463C20.699 21.0166 20.3557 21.7241 19.8622 22.1523C19.5548 22.4193 19.3585 22.0795 19.2133 21.5229C18.9043 20.3404 18.824 18.1749 18.3851 18.7868C17.1164 20.5607 18.3254 22.9117 18.6908 23.8186C18.7659 24.0042 18.8428 24.1827 18.9196 24.3527V24.3543C18.964 24.4514 19.0101 24.5486 19.0545 24.6405V24.6422C20.2737 27.1666 21.7389 28.07 23.0298 29.6427C23.537 30.2581 24.0168 30.9742 24.4454 31.9314C24.7391 32.5868 24.9509 33.2457 25.096 33.8923C25.8354 37.1347 24.9577 40.0806 24.7203 40.8817C24.2234 42.5497 23.3696 45.4156 20.8646 47.0333C17.7192 49.0656 14.8487 47.2745 13.4758 49.2042C13.4587 49.2268 13.4433 49.2493 13.428 49.2718C13.3767 49.3499 13.3306 49.4279 13.2914 49.5058C12.0585 49.0517 10.8461 48.5193 9.67981 47.9177C9.52268 47.838 9.36559 47.7563 9.20851 47.6697C9.03433 47.5796 8.86186 47.4842 8.68768 47.3854C8.68084 47.2501 8.67401 47.115 8.66888 46.978C8.56816 44.632 8.72012 42.0537 9.2956 39.4824C9.66442 37.8404 10.0299 36.2122 10.5899 34.6431C10.9554 33.6202 11.4027 32.6214 11.9919 31.6591C12.4632 30.8858 13.0233 30.135 13.7029 29.4137C15.1954 27.8307 16.5222 27.1702 16.7322 25.4986C17.0327 23.1129 14.5857 22.3951 13.7029 18.7868C13.1001 16.3196 12.47 12.7635 13.0813 10.3672C13.6585 8.10285 14.1605 6.13836 15.8357 4.21366C16.2387 3.75243 19.5463 0.544764 23.3782 0.0176607C25.1438 -0.223286 26.7182 2.0724 28.8527 2.56649C31.3065 3.13355 32.7119 3.4578 34.0848 4.52403C36.4055 6.32377 37.0594 9.01483 37.6656 11.5151C38.1404 13.4709 38.7551 16.0006 37.9406 19.066Z" fill="#2F2E41"/>
</svg>
