<svg width="20" height="20" viewBox="0 0 20 20" fill="none" xmlns="http://www.w3.org/2000/svg">
<path d="M7.15299 3.408C8.41999 1.136 9.05299 0 9.99999 0C10.947 0 11.58 1.136 12.847 3.408L13.175 3.996C13.535 4.642 13.715 4.965 13.995 5.178C14.275 5.391 14.625 5.47 15.325 5.628L15.961 5.772C18.421 6.329 19.65 6.607 19.943 7.548C20.235 8.488 19.397 9.469 17.72 11.43L17.286 11.937C16.81 12.494 16.571 12.773 16.464 13.117C16.357 13.462 16.393 13.834 16.465 14.577L16.531 15.254C16.784 17.871 16.911 19.179 16.145 19.76C15.379 20.341 14.227 19.811 11.925 18.751L11.328 18.477C10.674 18.175 10.347 18.025 9.99999 18.025C9.65299 18.025 9.32599 18.175 8.67199 18.477L8.07599 18.751C5.77299 19.811 4.62099 20.341 3.85599 19.761C3.08899 19.179 3.21599 17.871 3.46899 15.254L3.53499 14.578C3.60699 13.834 3.64299 13.462 3.53499 13.118C3.42899 12.773 3.18999 12.494 2.71399 11.938L2.27999 11.43C0.602991 9.47 -0.235009 8.489 0.0569909 7.548C0.348991 6.607 1.57999 6.328 4.03999 5.772L4.67599 5.628C5.37499 5.47 5.72399 5.391 6.00499 5.178C6.28599 4.965 6.46499 4.642 6.82499 3.996L7.15299 3.408Z" fill="#B0B0B0"/>
</svg>
